<svg width="43" height="43" viewBox="0 0 43 43" fill="none" xmlns="http://www.w3.org/2000/svg">
<path d="M42.9962 17.9834C43 17.9341 43 17.8885 43 17.8392V5.09745C43 4.10681 42.6054 3.20726 41.9604 2.55062C41.9376 2.52785 41.9148 2.50508 41.8959 2.4861L40.492 1.08174C40.4806 1.07035 40.473 1.06276 40.4617 1.05137C39.8053 0.398535 38.9022 0 37.9081 0H17.8746C15.8675 0 14.2397 1.6283 14.2397 3.63616V5.3935L9.91053 1.06276C9.25413 0.406126 8.34351 0 7.34183 0H5.29295C4.35198 0 3.49069 0.356784 2.84567 0.945097C2.83049 0.956483 2.81911 0.971666 2.80394 0.983052L2.64078 1.15006C2.62561 1.16144 2.61422 1.17663 2.59905 1.19181L0 3.78798V42.9962H14.2397V25.5214L30.6498 41.9372C31.31 42.5939 32.2168 43 33.2185 43H37.9651C38.9288 43 39.8015 42.628 40.4503 42.0169L41.9338 40.5329C42.594 39.8762 43 38.9653 43 37.9633V35.6708C43 34.7295 42.6433 33.8717 42.0552 33.2264C42.0363 33.2074 42.0173 33.1847 41.9945 33.1657L30.3159 21.4753H39.3651C41.3229 21.4753 42.9203 19.9229 42.9962 17.9834ZM35.9503 14.4156H23.2586L21.6119 12.7683V7.27231H32.2889L35.9503 10.935V14.4156ZM21.4336 13.1137L19.7869 11.4664V5.97043H30.4639L34.1253 9.63315V13.1137H21.4336Z" fill="#FF2E00"/>
</svg>
